<?xml version="1.0" encoding="utf-8"?>
<!-- Generator: Adobe Illustrator 15.0.0, SVG Export Plug-In . SVG Version: 6.00 Build 0)  -->
<svg version="1.2" baseProfile="tiny" id="Layer_1" xmlns="http://www.w3.org/2000/svg" xmlns:xlink="http://www.w3.org/1999/xlink"
	 x="0px" y="0px" width="640px" height="1080px" viewBox="0 0 640 1080" xml:space="preserve">
<rect id="Support1" x="44.5" y="454.5" fill="#FFFFFF" stroke="#000000" stroke-miterlimit="10" width="142" height="103"/>
<text transform="matrix(1 0 0 1 53.4995 506)" font-family="'MyriadPro-Regular'" font-size="18">R</text>
<text transform="matrix(1 0 0 1 63.2554 506)" font-family="'MyriadPro-Regular'" font-size="18">e</text>
<text transform="matrix(1 0 0 1 72.2734 506)" font-family="'MyriadPro-Regular'" font-size="18">g</text>
<text transform="matrix(1 0 0 1 82.335 506)" font-family="'MyriadPro-Regular'" font-size="18">g</text>
<text transform="matrix(1 0 0 1 92.2891 506)" font-family="'MyriadPro-Regular'" font-size="18">i</text>
<text transform="matrix(1 0 0 1 96.501 506)" font-family="'MyriadPro-Regular'" font-size="18">e</text>
<text transform="matrix(1 0 0 1 105.5186 506)" font-family="'MyriadPro-Regular'" font-size="18"> </text>
<text transform="matrix(1 0 0 1 109.3345 506)" font-family="'MyriadPro-Regular'" font-size="18">i</text>
<text transform="matrix(1 0 0 1 113.5464 506)" font-family="'MyriadPro-Regular'" font-size="18">s</text>
<text transform="matrix(1 0 0 1 120.6743 506)" font-family="'MyriadPro-Regular'" font-size="18"> </text>
<text transform="matrix(1 0 0 1 124.4902 506)" font-family="'MyriadPro-Regular'" font-size="18">a</text>
<text transform="matrix(1 0 0 1 133.166 506)" font-family="'MyriadPro-Regular'" font-size="18"> </text>
<text transform="matrix(1 0 0 1 136.9819 506)" font-family="'MyriadPro-Regular'" font-size="18">p</text>
<text transform="matrix(1 0 0 1 147.2236 506)" font-family="'MyriadPro-Regular'" font-size="18">u</text>
<text transform="matrix(1 0 0 1 157.1416 506)" font-family="'MyriadPro-Regular'" font-size="18">n</text>
<text transform="matrix(1 0 0 1 167.1313 506)" font-family="'MyriadPro-Regular'" font-size="18">k</text>
<rect id="Support2" x="242.5" y="454.5" fill="#FFFFFF" stroke="#000000" stroke-miterlimit="10" width="142" height="103"/>
<text transform="matrix(1 0 0 1 269.3784 507.2495)" font-family="'MyriadPro-Regular'" font-size="18">N</text>
<text transform="matrix(1 0 0 1 281.4023 507.2495)" font-family="'MyriadPro-Regular'" font-size="18">i</text>
<text transform="matrix(1 0 0 1 285.6143 507.2495)" font-family="'MyriadPro-Regular'" font-size="18">c</text>
<text transform="matrix(1 0 0 1 293.6777 507.2495)" font-family="'MyriadPro-Regular'" font-size="18">k</text>
<text transform="matrix(1 0 0 1 302.1201 507.2495)" font-family="'MyriadPro-Regular'" font-size="18"> </text>
<text transform="matrix(1 0 0 1 305.9355 507.2495)" font-family="'MyriadPro-Regular'" font-size="18">i</text>
<text transform="matrix(1 0 0 1 310.1475 507.2495)" font-family="'MyriadPro-Regular'" font-size="18">s</text>
<text transform="matrix(1 0 0 1 317.2754 507.2495)" font-family="'MyriadPro-Regular'" font-size="18"> </text>
<text transform="matrix(1 0 0 1 321.0913 507.2495)" font-family="'MyriadPro-Regular'" font-size="18">s</text>
<text transform="matrix(1 0 0 1 328.2192 507.2495)" font-family="'MyriadPro-Regular'" font-size="18">i</text>
<text transform="matrix(1 0 0 1 332.4312 507.2495)" font-family="'MyriadPro-Regular'" font-size="18">c</text>
<text transform="matrix(1 0 0 1 340.4951 507.2495)" font-family="'MyriadPro-Regular'" font-size="18">k</text>
<rect id="Point1" x="242.5" y="210.5" fill="#FFFFFF" stroke="#000000" stroke-miterlimit="10" width="142" height="103"/>
<text transform="matrix(1 0 0 1 261.8789 255.7495)" font-family="'MyriadPro-Regular'" font-size="18">C</text>
<text transform="matrix(1 0 0 1 272.1211 255.7495)" font-family="'MyriadPro-Regular'" font-size="18">o</text>
<text transform="matrix(1 0 0 1 282.0029 255.7495)" font-family="'MyriadPro-Regular'" font-size="18">l</text>
<text transform="matrix(1 0 0 1 286.2505 255.7495)" font-family="'MyriadPro-Regular'" font-size="18">i</text>
<text transform="matrix(1 0 0 1 290.4624 255.7495)" font-family="'MyriadPro-Regular'" font-size="18">n</text>
<text transform="matrix(1 0 0 1 299.8589 255.7495)" font-family="'MyriadPro-Regular'" font-size="18">’</text>
<text transform="matrix(1 0 0 1 302.2886 255.7495)" font-family="'MyriadPro-Regular'" font-size="18">s</text>
<text transform="matrix(1 0 0 1 309.4165 255.7495)" font-family="'MyriadPro-Regular'" font-size="18"> </text>
<text transform="matrix(1 0 0 1 313.2324 255.7495)" font-family="'MyriadPro-Regular'" font-size="18">f</text>
<text transform="matrix(1 0 0 1 318.4883 255.7495)" font-family="'MyriadPro-Regular'" font-size="18">r</text>
<text transform="matrix(1 0 0 1 324.4458 255.7495)" font-family="'MyriadPro-Regular'" font-size="18">i</text>
<text transform="matrix(1 0 0 1 328.6577 255.7495)" font-family="'MyriadPro-Regular'" font-size="18">e</text>
<text transform="matrix(1 0 0 1 337.6758 255.7495)" font-family="'MyriadPro-Regular'" font-size="18">n</text>
<text transform="matrix(1 0 0 1 347.6655 255.7495)" font-family="'MyriadPro-Regular'" font-size="18">d</text>
<text transform="matrix(1 0 0 1 357.8174 255.7495)" font-family="'MyriadPro-Regular'" font-size="18">s</text>
<text transform="matrix(1 0 0 1 364.9453 255.7495)" font-family="'MyriadPro-Regular'" font-size="18"> </text>
<text transform="matrix(1 0 0 1 261.8789 277.3496)" font-family="'MyriadPro-Regular'" font-size="18">a</text>
<text transform="matrix(1 0 0 1 270.5547 277.3496)" font-family="'MyriadPro-Regular'" font-size="18">r</text>
<text transform="matrix(1 0 0 1 276.2607 277.3496)" font-family="'MyriadPro-Regular'" font-size="18">e</text>
<text transform="matrix(1 0 0 1 285.2788 277.3496)" font-family="'MyriadPro-Regular'" font-size="18"> </text>
<text transform="matrix(1 0 0 1 289.0947 277.3496)" font-family="'MyriadPro-Regular'" font-size="18">a</text>
<text transform="matrix(1 0 0 1 297.6265 277.3496)" font-family="'MyriadPro-Regular'" font-size="18">w</text>
<text transform="matrix(1 0 0 1 310.6943 277.3496)" font-family="'MyriadPro-Regular'" font-size="18">e</text>
<text transform="matrix(1 0 0 1 319.7124 277.3496)" font-family="'MyriadPro-Regular'" font-size="18">s</text>
<text transform="matrix(1 0 0 1 326.8403 277.3496)" font-family="'MyriadPro-Regular'" font-size="18">o</text>
<text transform="matrix(1 0 0 1 336.7222 277.3496)" font-family="'MyriadPro-Regular'" font-size="18">m</text>
<text transform="matrix(1 0 0 1 351.7344 277.3496)" font-family="'MyriadPro-Regular'" font-size="18">e</text>
<rect id="Support3" x="440.5" y="454.5" fill="#FFFFFF" stroke="#000000" stroke-miterlimit="10" width="142" height="103"/>
<text transform="matrix(1 0 0 1 465.999 506)" font-family="'MyriadPro-Regular'" font-size="18">K</text>
<text transform="matrix(1 0 0 1 475.7549 506)" font-family="'MyriadPro-Regular'" font-size="18">e</text>
<text transform="matrix(1 0 0 1 484.7729 506)" font-family="'MyriadPro-Regular'" font-size="18">v</text>
<text transform="matrix(1 0 0 1 493.4307 506)" font-family="'MyriadPro-Regular'" font-size="18">i</text>
<text transform="matrix(1 0 0 1 497.6426 506)" font-family="'MyriadPro-Regular'" font-size="18">n</text>
<text transform="matrix(1 0 0 1 507.6323 506)" font-family="'MyriadPro-Regular'" font-size="18"> </text>
<text transform="matrix(1 0 0 1 511.4482 506)" font-family="'MyriadPro-Regular'" font-size="18">k</text>
<text transform="matrix(1 0 0 1 520.1958 506)" font-family="'MyriadPro-Regular'" font-size="18">n</text>
<text transform="matrix(1 0 0 1 530.186 506)" font-family="'MyriadPro-Regular'" font-size="18">o</text>
<text transform="matrix(1 0 0 1 539.9419 506)" font-family="'MyriadPro-Regular'" font-size="18">w</text>
<text transform="matrix(1 0 0 1 553.082 506)" font-family="'MyriadPro-Regular'" font-size="18">s</text>
<text transform="matrix(1 0 0 1 560.21 506)" font-family="'MyriadPro-Regular'" font-size="18"> </text>
<text transform="matrix(1 0 0 1 465.999 527.6001)" font-family="'MyriadPro-Regular'" font-size="18">t</text>
<text transform="matrix(1 0 0 1 471.8491 527.6001)" font-family="'MyriadPro-Regular'" font-size="18">o</text>
<text transform="matrix(1 0 0 1 481.731 527.6001)" font-family="'MyriadPro-Regular'" font-size="18">o</text>
<text transform="matrix(1 0 0 1 491.6128 527.6001)" font-family="'MyriadPro-Regular'" font-size="18"> </text>
<text transform="matrix(1 0 0 1 495.4287 527.6001)" font-family="'MyriadPro-Regular'" font-size="18">m</text>
<text transform="matrix(1 0 0 1 510.4404 527.6001)" font-family="'MyriadPro-Regular'" font-size="18">u</text>
<text transform="matrix(1 0 0 1 520.3584 527.6001)" font-family="'MyriadPro-Regular'" font-size="18">c</text>
<text transform="matrix(1 0 0 1 528.4224 527.6001)" font-family="'MyriadPro-Regular'" font-size="18">h</text>
<g id="Link1">
	<line fill="none" stroke="#000000" stroke-width="2" stroke-miterlimit="10" x1="115.5" y1="454.5" x2="258.967" y2="323.04"/>
	<g>
		<polygon points="269.378,313.5 260.201,332.938 258.189,323.753 249.216,320.95 		"/>
	</g>
</g>
<g id="Link2">
	<line fill="none" stroke="#000000" stroke-width="2" stroke-miterlimit="10" x1="313" y1="455" x2="313" y2="328"/>
	<g>
		<polygon points="313.5,313.5 321.631,333.398 313.5,328.677 305.371,333.398 		"/>
	</g>
</g>
<g id="Link3">
	<line fill="none" stroke="#000000" stroke-width="2" stroke-miterlimit="10" x1="511.379" y1="454.5" x2="367.912" y2="323.04"/>
	<g>
		<polygon points="357.5,313.5 377.665,320.948 368.69,323.753 366.68,332.937 		"/>
	</g>
</g>
</svg>
